<?xml version='1.0' encoding='iso-8859-1'?>
<!-- License: CC0. Made by SVG Repo: https://www.svgrepo.com/svg/148352/flower -->
<svg version="1.1" xmlns="http://www.w3.org/2000/svg" viewBox="0 0 276.945 276.945" xmlns:xlink="http://www.w3.org/1999/xlink" enable-background="new 0 0 276.945 276.945" fill="#50C878">
  <path d="m276.945,138.473c0-19.862-11.183-37.152-27.578-45.93 5.388-17.802 1.066-37.939-12.98-51.985-14.046-14.045-34.183-18.367-51.984-12.979-8.778-16.396-26.068-27.579-45.93-27.579-19.862,0-37.153,11.183-45.93,27.578-17.802-5.388-37.938-1.066-51.984,12.979-14.046,14.046-18.368,34.183-12.981,51.985-16.395,8.778-27.578,26.069-27.578,45.931s11.183,37.153 27.578,45.931c-5.388,17.802-1.066,37.939 12.98,51.984 10.151,10.151 23.485,15.228 36.82,15.228 5.115,0 10.228-0.754 15.163-2.248 8.778,16.395 26.069,27.578 45.93,27.578 19.862,0 37.153-11.183 45.93-27.578 4.936,1.494 10.049,2.248 15.164,2.248 13.335,0 26.669-5.076 36.82-15.228 14.046-14.045 18.368-34.183 12.98-51.985 16.398-8.778 27.58-26.069 27.58-45.93zm-92.985-76.702c8.605-8.605 22.609-8.605 31.215,0 8.606,8.606 8.606,22.609 0,31.216-2.882,2.882-6.476,4.894-10.422,5.842l-.31,.039c-3.205-5.317-7.078-10.281-11.581-14.784-4.54-4.54-9.516-8.381-14.787-11.546l.043-.345c0.947-3.947 2.959-7.54 5.842-10.422zm-12.311,109.878c-18.293,18.293-48.061,18.293-66.354,0-18.294-18.294-18.294-48.06 0-66.354 9.146-9.146 21.162-13.72 33.177-13.72s24.03,4.573 33.177,13.72c8.862,8.862 13.743,20.645 13.743,33.177s-4.88,24.315-13.743,33.177zm-33.176-141.649c9.507,0 17.63,6.042 20.729,14.488-4.319,5.295-7.526,11.378-9.486,17.927-7.452-1.092-15.034-1.092-22.486,0-1.961-6.55-5.168-12.633-9.486-17.927 3.1-8.447 11.222-14.488 20.729-14.488zm-76.702,31.771c8.605-8.605 22.609-8.605 31.215,0 2.882,2.882 4.894,6.475 5.842,10.421l.043,.345c-5.272,3.166-10.248,7.007-14.788,11.547-4.54,4.54-8.382,9.516-11.547,14.788l-.343-.043c-3.945-0.947-7.539-2.96-10.421-5.842-8.607-8.607-8.607-22.61-0.001-31.216zm-31.771,76.702c0-9.507 6.042-17.63 14.487-20.729 5.294,4.318 11.376,7.525 17.926,9.486-1.092,7.453-1.092,15.035 0,22.487-6.549,1.961-12.632,5.167-17.926,9.486-8.445-3.101-14.487-11.223-14.487-20.73zm62.986,76.702c-8.605,8.605-22.609,8.605-31.215,0-8.606-8.606-8.606-22.609 0-31.216 2.882-2.882 6.476-4.895 10.421-5.842l.343-.043c3.166,5.272 7.007,10.248 11.547,14.788 4.54,4.54 9.516,8.381 14.788,11.547l-.043,.344c-0.947,3.947-2.959,7.54-5.841,10.422zm45.487,31.77c-9.507,0-17.629-6.041-20.729-14.487 4.319-5.294 7.525-11.377 9.486-17.927 3.726,0.546 7.484,0.823 11.243,0.823 3.759,0 7.517-0.278 11.244-0.824 1.96,6.549 5.167,12.631 9.486,17.926-3.101,8.448-11.223,14.489-20.73,14.489zm76.702-31.77c-8.605,8.605-22.609,8.605-31.215,0-2.883-2.883-4.895-6.476-5.842-10.421l-.043-.345c5.271-3.166 10.247-7.007 14.787-11.546 4.503-4.503 8.376-9.467 11.581-14.784l.31,.039c3.946,0.948 7.54,2.96 10.422,5.842 8.606,8.605 8.606,22.608 2.84217e-14,31.215zm17.284-55.973c-5.282-4.309-11.35-7.51-17.882-9.472 0.539-3.695 0.816-7.455 0.816-11.257s-0.278-7.561-0.816-11.257c6.533-1.962 12.6-5.164 17.882-9.472 8.445,3.1 14.487,11.222 14.487,20.729s-6.042,17.629-14.487,20.729z"/>
</svg>
