<?xml version='1.0' encoding='iso-8859-1'?>
<!DOCTYPE svg PUBLIC '-//W3C//DTD SVG 1.1//EN' 'http://www.w3.org/Graphics/SVG/1.1/DTD/svg11.dtd'>
<!-- License: CC0. Made by SVG Repo: https://www.svgrepo.com/svg/95569/flower -->
<svg version="1.1" xmlns="http://www.w3.org/2000/svg" viewBox="0 0 451.777 451.777" xmlns:xlink="http://www.w3.org/1999/xlink" enable-background="new 0 0 451.777 451.777">
  <g>
    <path d="m288.449,251.802c6.922-16.71 6.922-35.117 0-51.828-6.921-16.71-19.937-29.726-36.647-36.647-16.709-6.922-35.116-6.922-51.827,0-16.71,6.922-29.726,19.937-36.647,36.647-6.922,16.711-6.922,35.117 0,51.828 10.791,26.051 36.063,41.805 62.649,41.802 8.619,0 17.381-1.657 25.826-5.155 16.71-6.921 29.725-19.936 36.646-36.647zm-32.336-13.393c-3.344,8.073-9.632,14.361-17.705,17.705-16.666,6.903-35.842-1.039-42.745-17.705-3.345-8.074-3.344-16.966 0-25.04 3.344-8.074 9.632-14.361 17.706-17.706 4.037-1.672 8.277-2.508 12.52-2.508 4.241,0 8.483,0.836 12.52,2.508 8.073,3.344 14.361,9.632 17.705,17.705 3.344,8.074 3.344,16.967-0.001,25.041z"/>
    <path d="m412.586,234.564l-20.944-8.675 20.944-8.675c15.653-6.484 27.845-18.675 34.328-34.329 6.484-15.654 6.484-32.895 0-48.548-6.483-15.653-18.675-27.845-34.328-34.329-15.654-6.484-32.895-6.484-48.549,0l-20.943,8.675 8.676-20.944c13.384-32.314-2.016-69.492-34.329-82.876-32.315-13.385-69.492,2.015-82.877,34.328l-8.675,20.943-8.675-20.944c-13.385-32.311-50.562-47.713-82.878-34.327-32.313,13.385-47.712,50.563-34.328,82.877l8.675,20.943-20.942-8.675c-15.654-6.484-32.895-6.483-48.549,0-15.653,6.484-27.845,18.676-34.328,34.328-6.484,15.653-6.484,32.895-0.001,48.548 6.484,15.654 18.676,27.845 34.329,34.329l20.943,8.675-20.943,8.675c-32.314,13.385-47.713,50.564-34.33,82.878 10.108,24.402 33.781,39.159 58.687,39.157 8.073,0 16.28-1.552 24.191-4.829l20.942-8.675-8.675,20.943c-13.384,32.314 2.016,69.493 34.329,82.877 32.315,13.383 69.492-2.015 82.877-34.329l8.675-20.943 8.675,20.943c10.108,24.403 33.781,39.16 58.686,39.158 8.073-0.001 16.28-1.552 24.191-4.829 32.313-13.384 47.713-50.563 34.329-82.877l-8.675-20.943 20.942,8.675c15.654,6.483 32.895,6.484 48.549,0 15.653-6.484 27.845-18.675 34.328-34.328 6.484-15.654 6.484-32.895 0-48.548-6.482-15.654-18.674-27.846-34.327-34.329zm-35.154-102.22c7.015-2.906 14.745-2.906 21.76,0 7.017,2.906 12.48,8.371 15.387,15.387 2.906,7.016 2.906,14.744 0,21.76s-8.37,12.48-15.387,15.387l-43.734,18.115c-1.663-9.305-4.341-18.498-8.045-27.441-3.735-9.017-8.371-17.392-13.748-25.079l43.767-18.129zm-240.731,130.488c-9.868-23.823-9.868-50.063 0-73.885 9.867-23.823 28.422-42.377 52.245-52.245 12.042-4.988 24.526-7.349 36.816-7.349 37.899,0 73.932,22.458 89.313,59.594 9.868,23.823 9.868,50.063 0,73.885-9.867,23.823-28.422,42.377-52.245,52.245-49.176,20.37-105.759-3.067-126.129-52.245zm167.345-225.633c14.484,5.999 21.387,22.663 15.388,37.147l-18.146,43.808c-15.713-10.96-33.673-18.399-52.533-21.76l18.145-43.808c5.999-14.485 22.666-21.387 37.146-15.387zm-156.315,0c14.482-6.001 31.147,0.904 37.147,15.387l18.129,43.767c-9.238,1.633-18.438,4.278-27.455,8.013-8.943,3.704-17.337,8.312-25.093,13.715l-18.115-43.734c-5.999-14.485 0.903-31.149 15.387-37.148zm-95.145,147.679c-7.017-2.906-12.481-8.371-15.388-15.387-2.905-7.016-2.905-14.744 0.001-21.761 2.906-7.016 8.37-12.48 15.387-15.387 7.015-2.906 14.743-2.907 21.76,0l43.734,18.116c-5.403,7.756-10.011,16.15-13.715,25.093-3.704,8.943-6.382,18.136-8.045,27.441l-43.734-18.115zm21.76,134.555c-14.483,6-31.148-0.904-37.147-15.386-5.999-14.484 0.903-31.148 15.388-37.147l43.734-18.115c1.663,9.305 4.341,18.498 8.045,27.441 3.736,9.018 8.379,17.388 13.756,25.075l-43.776,18.132zm95.145,95.146c-7.017,2.906-14.742,2.906-21.761,0-7.016-2.906-12.48-8.37-15.387-15.387-2.906-7.016-2.906-14.744 0-21.76l18.149-43.817c15.714,10.961 33.672,18.399 52.535,21.759l-18.15,43.818c-2.905,7.016-8.37,12.48-15.386,15.387zm134.555,0c-14.478,6-31.146-0.903-37.146-15.387l-18.128-43.765c9.238-1.633 18.439-4.281 27.454-8.015 8.943-3.704 17.337-8.312 25.093-13.715l18.115,43.734c5.999,14.484-0.904,31.149-15.388,37.148zm110.532-110.532c-2.906,7.016-8.37,12.48-15.387,15.387-7.015,2.906-14.743,2.906-21.76,0l-43.734-18.116c5.404-7.756 10.011-16.15 13.715-25.093 3.704-8.943 6.382-18.136 8.045-27.441l43.734,18.115c7.017,2.906 12.481,8.371 15.388,15.387 2.905,7.016 2.905,14.744-0.001,21.761z"/>
  </g>
</svg>
