<svg version="1.0" xmlns="http://www.w3.org/2000/svg"
 width="833.000000pt" height="1261.000000pt" viewBox="0 0 833.000000 1261.000000"
 preserveAspectRatio="xMidYMid meet">

<g transform="translate(0.000000,1261.000000) scale(0.100000,-0.100000)"
fill="#000000" stroke="none">
<path d="M70 6295 l0 -6255 1295 0 1295 0 0 2028 c0 1155 4 2109 10 2217 15
296 61 518 151 735 159 380 452 650 850 783 168 57 299 78 505 84 213 7 328
-8 492 -63 215 -71 388 -180 547 -345 256 -266 404 -631 445 -1099 6 -72 10
-905 10 -2227 l0 -2113 1300 0 1300 0 0 2294 c0 2288 -3 2521 -36 2856 -153
1566 -791 2590 -1884 3019 -379 150 -837 231 -1300 231 -520 0 -1111 -180
-1570 -477 -377 -245 -657 -577 -775 -918 -16 -44 -32 -84 -37 -90 -4 -5 -8
1252 -8 2793 l0 2802 -1295 0 -1295 0 0 -6255z"/>
</g>
</svg>
