<svg version="1.1" id="Layer_1" xmlns="http://www.w3.org/2000/svg" xmlns:xlink="http://www.w3.org/1999/xlink" x="0px" y="0px"
	 width="100%" viewBox="0 0 2333 803" enable-background="new 0 0 2333 803" xml:space="preserve">
<path fill="#FFFFFF" opacity="1.000000" stroke="none" 
	d="
M1489.000000,804.000000 
	C992.666748,804.000000 496.833496,804.000000 1.000200,804.000000 
	C1.000133,536.333496 1.000133,268.666931 1.000067,1.000307 
	C778.666443,1.000205 1556.332886,1.000205 2333.999512,1.000103 
	C2333.999512,268.666351 2333.999512,536.332703 2333.999756,803.999512 
	C2052.500000,804.000000 1771.000000,804.000000 1489.000000,804.000000 
M360.069305,615.500000 
	C360.069305,674.111084 360.069305,732.722168 360.069305,791.367920 
	C414.608398,791.367920 468.634460,791.367920 522.711365,791.367920 
	C522.768921,790.125732 522.841064,789.296814 522.841003,788.467896 
	C522.833069,695.469849 523.056213,602.470825 522.696716,509.474091 
	C522.540894,469.172577 517.656128,429.432281 503.997681,391.180664 
	C492.672150,359.462708 475.920563,331.236542 449.991760,309.199066 
	C411.644226,276.606628 366.022980,266.017883 317.088593,266.655975 
	C288.291351,267.031464 261.337555,275.399506 236.024246,288.823639 
	C207.200058,304.109680 184.426208,325.167938 173.408600,356.932892 
	C173.244858,357.405029 172.805481,357.781555 171.900391,359.008148 
	C171.900391,241.850708 171.900391,125.736595 171.900391,9.415652 
	C117.893517,9.415652 64.156647,9.415652 10.242168,9.415652 
	C10.242168,270.221588 10.242168,530.789978 10.242168,791.530518 
	C64.222839,791.530518 117.961189,791.530518 172.117828,791.530518 
	C172.117828,789.323242 172.117828,787.356750 172.117828,785.390320 
	C172.117859,703.058655 171.941986,620.726257 172.296570,538.396118 
	C172.353577,525.162781 173.754547,511.736206 176.334579,498.756836 
	C180.826691,476.158386 192.030823,457.176819 211.122116,443.516510 
	C225.566177,433.181427 241.937042,427.987000 259.453674,426.396942 
	C292.467590,423.400208 319.774017,434.063934 339.641785,461.219818 
	C353.592346,480.287811 359.117432,502.372253 359.688873,525.508484 
	C360.421143,555.157349 359.995850,584.834839 360.069305,615.500000 
M1848.529053,279.905121 
	C1808.294556,266.617462 1767.192505,263.415314 1725.839722,272.351990 
	C1644.271729,289.979553 1585.464355,337.252563 1550.324341,412.769775 
	C1524.861938,467.489502 1519.708984,525.392151 1528.922241,584.644348 
	C1538.110840,643.738892 1562.765503,695.417908 1607.413208,735.772644 
	C1674.514893,796.422302 1752.597290,815.289551 1840.096924,791.711548 
	C1875.795776,782.091919 1907.179199,764.441833 1931.112793,735.302246 
	C1931.353882,735.008789 1931.896240,734.962646 1932.929565,734.546936 
	C1932.929565,753.825684 1932.929565,772.680420 1932.929565,791.507080 
	C1986.907959,791.507080 2040.325562,791.507080 2093.820801,791.507080 
	C2093.820801,620.816284 2093.820801,450.406891 2093.820801,280.041687 
	C2040.003052,280.041687 1986.449463,280.041687 1932.489746,280.041687 
	C1932.489746,298.289185 1932.489746,316.197906 1932.489746,332.015900 
	C1927.379761,327.617249 1921.301758,322.523651 1915.375366,317.259399 
	C1896.035400,300.080139 1873.602661,288.431519 1848.529053,279.905121 
M552.331726,452.859894 
	C540.586487,491.863556 537.306519,531.582031 542.862366,571.920044 
	C553.160583,646.689941 589.099121,706.446838 650.898193,749.432556 
	C721.344299,798.432922 799.636536,812.039856 883.129089,794.389709 
	C942.085388,781.926453 992.739563,753.636230 1032.782349,708.211487 
	C1085.475464,648.436218 1104.306274,577.961670 1095.159058,499.639557 
	C1087.848389,437.042389 1060.794678,383.964752 1014.442322,341.261444 
	C967.169373,297.710083 910.786194,274.004700 847.031738,267.950653 
	C782.795471,261.850830 722.426453,274.590790 667.033813,308.003967 
	C611.117859,341.732880 572.602600,389.656036 552.331726,452.859894 
M1336.997559,322.500000 
	C1336.997559,478.779358 1336.997559,635.058716 1336.997559,791.534790 
	C1391.359253,791.534790 1445.261108,791.534790 1499.424316,791.534790 
	C1499.424316,530.735229 1499.424316,270.186279 1499.424316,9.410242 
	C1445.234619,9.410242 1391.331543,9.410242 1336.997559,9.410242 
	C1336.997559,113.595139 1336.997559,217.547577 1336.997559,322.500000 
M1283.095703,240.500015 
	C1283.095703,163.452103 1283.095703,86.404198 1283.095703,9.437025 
	C1228.528076,9.437025 1174.765625,9.437025 1120.786377,9.437025 
	C1120.786377,270.220734 1120.786377,530.746155 1120.786377,791.520752 
	C1174.924683,791.520752 1228.814575,791.520752 1283.095703,791.520752 
	C1283.095703,608.005432 1283.095703,424.752716 1283.095703,240.500015 
M2221.129395,608.622253 
	C2213.295166,610.044312 2205.249512,610.754333 2197.661865,613.006775 
	C2155.661865,625.475037 2125.650635,664.784546 2129.760254,712.091797 
	C2132.277100,741.064880 2144.637939,764.783264 2168.156250,781.962097 
	C2202.163330,806.802063 2248.485596,808.054932 2284.230469,785.787170 
	C2322.694336,761.825745 2339.383545,712.685974 2323.232910,670.948059 
	C2307.735107,630.896179 2265.964355,605.139648 2221.129395,608.622253 
z"/>
<path fill="#0D0F0E" opacity="1.000000" stroke="none" 
	d="
M360.069275,615.000000 
	C359.995850,584.834839 360.421143,555.157349 359.688873,525.508484 
	C359.117432,502.372253 353.592346,480.287811 339.641785,461.219818 
	C319.774017,434.063934 292.467590,423.400208 259.453674,426.396942 
	C241.937042,427.987000 225.566177,433.181427 211.122116,443.516510 
	C192.030823,457.176819 180.826691,476.158386 176.334579,498.756836 
	C173.754547,511.736206 172.353577,525.162781 172.296570,538.396118 
	C171.941986,620.726257 172.117859,703.058655 172.117828,785.390320 
	C172.117828,787.356750 172.117828,789.323242 172.117828,791.530518 
	C117.961189,791.530518 64.222839,791.530518 10.242168,791.530518 
	C10.242168,530.789978 10.242168,270.221588 10.242168,9.415652 
	C64.156647,9.415652 117.893517,9.415652 171.900391,9.415652 
	C171.900391,125.736595 171.900391,241.850708 171.900391,359.008148 
	C172.805481,357.781555 173.244858,357.405029 173.408600,356.932892 
	C184.426208,325.167938 207.200058,304.109680 236.024246,288.823639 
	C261.337555,275.399506 288.291351,267.031464 317.088593,266.655975 
	C366.022980,266.017883 411.644226,276.606628 449.991760,309.199066 
	C475.920563,331.236542 492.672150,359.462708 503.997681,391.180664 
	C517.656128,429.432281 522.540894,469.172577 522.696716,509.474091 
	C523.056213,602.470825 522.833069,695.469849 522.841003,788.467896 
	C522.841064,789.296814 522.768921,790.125732 522.711365,791.367920 
	C468.634460,791.367920 414.608398,791.367920 360.069305,791.367920 
	C360.069305,732.722168 360.069305,674.111084 360.069275,615.000000 
z"/>
<path fill="#0D0F0E" opacity="1.000000" stroke="none" 
	d="
M1848.915039,279.997040 
	C1873.602661,288.431519 1896.035400,300.080139 1915.375366,317.259399 
	C1921.301758,322.523651 1927.379761,327.617249 1932.489746,332.015900 
	C1932.489746,316.197906 1932.489746,298.289185 1932.489746,280.041687 
	C1986.449463,280.041687 2040.003052,280.041687 2093.820801,280.041687 
	C2093.820801,450.406891 2093.820801,620.816284 2093.820801,791.507080 
	C2040.325562,791.507080 1986.907959,791.507080 1932.929565,791.507080 
	C1932.929565,772.680420 1932.929565,753.825684 1932.929565,734.546936 
	C1931.896240,734.962646 1931.353882,735.008789 1931.112793,735.302246 
	C1907.179199,764.441833 1875.795776,782.091919 1840.096924,791.711548 
	C1752.597290,815.289551 1674.514893,796.422302 1607.413208,735.772644 
	C1562.765503,695.417908 1538.110840,643.738892 1528.922241,584.644348 
	C1519.708984,525.392151 1524.861938,467.489502 1550.324341,412.769775 
	C1585.464355,337.252563 1644.271729,289.979553 1725.839722,272.351990 
	C1767.192505,263.415314 1808.294556,266.617462 1848.915039,279.997040 
M1923.878540,512.784424 
	C1913.777954,462.864685 1872.082397,426.127533 1822.933228,420.319580 
	C1781.620728,415.437714 1746.569458,429.167847 1718.402832,459.775360 
	C1685.277588,495.770844 1680.430054,552.382202 1706.713257,593.628418 
	C1726.570435,624.790161 1755.072266,642.736755 1791.356689,648.706604 
	C1835.209717,655.921814 1883.521362,634.242432 1907.470703,596.723755 
	C1923.798706,571.144531 1929.179443,543.462524 1923.878540,512.784424 
z"/>
<path fill="#0D0F0E" opacity="1.000000" stroke="none" 
	d="
M552.500488,452.495117 
	C572.602600,389.656036 611.117859,341.732880 667.033813,308.003967 
	C722.426453,274.590790 782.795471,261.850830 847.031738,267.950653 
	C910.786194,274.004700 967.169373,297.710083 1014.442322,341.261444 
	C1060.794678,383.964752 1087.848389,437.042389 1095.159058,499.639557 
	C1104.306274,577.961670 1085.475464,648.436218 1032.782349,708.211487 
	C992.739563,753.636230 942.085388,781.926453 883.129089,794.389709 
	C799.636536,812.039856 721.344299,798.432922 650.898193,749.432556 
	C589.099121,706.446838 553.160583,646.689941 542.862366,571.920044 
	C537.306519,531.582031 540.586487,491.863556 552.500488,452.495117 
M929.033447,508.560120 
	C927.889954,504.052917 927.065918,499.435425 925.553894,495.055450 
	C909.787170,449.385803 877.875854,423.028595 829.898438,417.786926 
	C778.072449,412.124756 729.910278,440.720032 712.290771,491.546326 
	C705.008911,512.552063 703.459412,534.111145 706.957947,556.034058 
	C711.633179,585.330322 724.821472,609.857239 748.579712,627.996765 
	C774.402466,647.712708 803.893433,654.163025 835.714966,649.717712 
	C865.312256,645.583130 889.930969,632.025085 908.031494,607.940491 
	C930.197876,578.445923 934.878845,544.989929 929.033447,508.560120 
z"/>
<path fill="#0E100F" opacity="1.000000" stroke="none" 
	d="
M1336.997559,322.000000 
	C1336.997559,217.547577 1336.997559,113.595139 1336.997559,9.410242 
	C1391.331543,9.410242 1445.234619,9.410242 1499.424316,9.410242 
	C1499.424316,270.186279 1499.424316,530.735229 1499.424316,791.534790 
	C1445.261108,791.534790 1391.359253,791.534790 1336.997559,791.534790 
	C1336.997559,635.058716 1336.997559,478.779358 1336.997559,322.000000 
z"/>
<path fill="#0D0F0E" opacity="1.000000" stroke="none" 
	d="
M1283.095703,241.000031 
	C1283.095703,424.752716 1283.095703,608.005432 1283.095703,791.520752 
	C1228.814575,791.520752 1174.924683,791.520752 1120.786377,791.520752 
	C1120.786377,530.746155 1120.786377,270.220734 1120.786377,9.437025 
	C1174.765625,9.437025 1228.528076,9.437025 1283.095703,9.437025 
	C1283.095703,86.404198 1283.095703,163.452103 1283.095703,241.000031 
z"/>
<path fill="#0E100F" opacity="1.000000" stroke="none" 
	d="
M2221.584229,608.586060 
	C2265.964355,605.139648 2307.735107,630.896179 2323.232910,670.948059 
	C2339.383545,712.685974 2322.694336,761.825745 2284.230469,785.787170 
	C2248.485596,808.054932 2202.163330,806.802063 2168.156250,781.962097 
	C2144.637939,764.783264 2132.277100,741.064880 2129.760254,712.091797 
	C2125.650635,664.784546 2155.661865,625.475037 2197.661865,613.006775 
	C2205.249512,610.754333 2213.295166,610.044312 2221.584229,608.586060 
z"/>
<path fill="#FEFEFE" opacity="1.000000" stroke="none" 
	d="
M1923.924805,513.213135 
	C1929.179443,543.462524 1923.798706,571.144531 1907.470703,596.723755 
	C1883.521362,634.242432 1835.209717,655.921814 1791.356689,648.706604 
	C1755.072266,642.736755 1726.570435,624.790161 1706.713257,593.628418 
	C1680.430054,552.382202 1685.277588,495.770844 1718.402832,459.775360 
	C1746.569458,429.167847 1781.620728,415.437714 1822.933228,420.319580 
	C1872.082397,426.127533 1913.777954,462.864685 1923.924805,513.213135 
z"/>
<path fill="#FEFEFE" opacity="1.000000" stroke="none" 
	d="
M929.094543,508.983765 
	C934.878845,544.989929 930.197876,578.445923 908.031494,607.940491 
	C889.930969,632.025085 865.312256,645.583130 835.714966,649.717712 
	C803.893433,654.163025 774.402466,647.712708 748.579712,627.996765 
	C724.821472,609.857239 711.633179,585.330322 706.957947,556.034058 
	C703.459412,534.111145 705.008911,512.552063 712.290771,491.546326 
	C729.910278,440.720032 778.072449,412.124756 829.898438,417.786926 
	C877.875854,423.028595 909.787170,449.385803 925.553894,495.055450 
	C927.065918,499.435425 927.889954,504.052917 929.094543,508.983765 
z"/>
</svg>