<svg version="1.1" id="Layer_1" xmlns="http://www.w3.org/2000/svg" xmlns:xlink="http://www.w3.org/1999/xlink" x="0px" y="0px"
	 width="100%" viewBox="0 0 487 512" enable-background="new 0 0 487 512" xml:space="preserve">
<path fill="#0000" opacity="1.0000" stroke="none" 
	d="
M488.0000,188.0000 
	C488.0000,296.666656 488.0000,404.833282 488.0000,513.0000 
	C325.666718,513.0000 163.333466,513.0000 1.000145,513.0000 
	C1.000097,342.333435 1.000097,171.666870 1.000048,1.000237 
	C163.333191,1.000158 325.666382,1.000158 487.999786,1.000079 
	C488.0000,63.166668 488.0000,125.333336 488.0000,188.0000 
M8.259207,227.831909 
	C8.561371,270.272888 8.735246,312.715485 9.274597,355.153473 
	C9.381690,363.579895 12.794462,370.814026 19.846775,376.333466 
	C26.220320,381.321655 33.281715,382.876404 41.005241,382.877869 
	C63.836231,382.882202 86.667221,382.884369 109.498207,382.887329 
	C111.273949,382.887543 113.049698,382.887360 115.137611,382.887360 
	C115.137611,398.198273 115.018059,412.997559 115.170197,427.794098 
	C115.332413,443.571136 115.292824,459.371277 116.175446,475.114532 
	C117.258224,494.428253 136.872482,508.783905 153.771042,508.787659 
	C250.761154,508.809113 347.751282,508.827515 444.741364,508.774139 
	C465.000061,508.763000 483.681396,491.991943 483.727600,470.329498 
	C483.954681,363.840973 483.908569,257.351654 483.692230,150.863129 
	C483.684296,146.960052 481.533752,142.632385 479.251312,139.269989 
	C476.310730,134.938141 472.310089,131.301926 468.622833,127.505157 
	C453.907166,112.352516 439.115387,97.273750 424.399597,82.121223 
	C420.712006,78.324219 417.274017,74.285294 413.599121,70.475388 
	C393.872925,50.024319 374.201782,29.517895 354.228180,9.310791 
	C351.945740,7.001664 347.899323,5.254736 344.663849,5.243532 
	C280.504700,5.021351 216.343445,4.911853 152.185547,5.282798 
	C141.285538,5.345819 131.844498,10.180303 124.501434,19.006275 
	C117.649353,27.242130 115.241119,36.694313 115.204521,46.874969 
	C115.053001,89.036797 115.137581,131.199463 115.135475,173.361832 
	C115.135384,175.139206 115.135468,176.916580 115.135468,179.040421 
	C113.036903,179.040421 111.406364,179.038773 109.775826,179.040680 
	C85.611893,179.069092 61.433052,178.592941 37.289295,179.305481 
	C21.376247,179.775116 10.186950,189.881531 9.171013,207.550400 
	C8.800680,213.991089 8.590026,220.440994 8.259207,227.831909 
z"/>
<path fill="#ffff" opacity="1.0000" stroke="none" 
	d="
M8.282864,227.359299 
	C8.590026,220.440994 8.800680,213.991089 9.171013,207.550400 
	C10.186950,189.881531 21.376247,179.775116 37.289295,179.305481 
	C61.433052,178.592941 85.611893,179.069092 109.775826,179.040680 
	C111.406364,179.038773 113.036903,179.040421 115.135468,179.040421 
	C115.135468,176.916580 115.135384,175.139206 115.135475,173.361832 
	C115.137581,131.199463 115.053001,89.036797 115.204521,46.874969 
	C115.241119,36.694313 117.649353,27.242130 124.501434,19.006275 
	C131.844498,10.180303 141.285538,5.345819 152.185547,5.282798 
	C216.343445,4.911853 280.504700,5.021351 344.663849,5.243532 
	C347.899323,5.254736 351.945740,7.001664 354.228180,9.310791 
	C374.201782,29.517895 393.872925,50.024319 413.599121,70.475388 
	C417.274017,74.285294 420.712006,78.324219 424.399597,82.121223 
	C439.115387,97.273750 453.907166,112.352516 468.622833,127.505157 
	C472.310089,131.301926 476.310730,134.938141 479.251312,139.269989 
	C481.533752,142.632385 483.684296,146.960052 483.692230,150.863129 
	C483.908569,257.351654 483.954681,363.840973 483.727600,470.329498 
	C483.681396,491.991943 465.000061,508.763000 444.741364,508.774139 
	C347.751282,508.827515 250.761154,508.809113 153.771042,508.787659 
	C136.872482,508.783905 117.258224,494.428253 116.175446,475.114532 
	C115.292824,459.371277 115.332413,443.571136 115.170197,427.794098 
	C115.018059,412.997559 115.137611,398.198273 115.137611,382.887360 
	C113.049698,382.887360 111.273949,382.887543 109.498207,382.887329 
	C86.667221,382.884369 63.836231,382.882202 41.005241,382.877869 
	C33.281715,382.876404 26.220320,381.321655 19.846775,376.333466 
	C12.794462,370.814026 9.381690,363.579895 9.274597,355.153473 
	C8.735246,312.715485 8.561371,270.272888 8.282864,227.359299 
M135.826981,426.499939 
	C135.835709,440.164459 135.652771,453.832520 135.907837,467.492462 
	C136.155792,480.771851 143.324234,488.006897 156.269531,488.025482 
	C251.753845,488.162567 347.238617,488.192322 442.722748,487.996521 
	C455.912964,487.969482 463.030365,481.723267 463.185883,467.705475 
	C463.508789,438.589600 463.797729,409.472992 463.960602,380.355927 
	C464.000427,373.237366 463.287445,366.115906 463.281097,358.995483 
	C463.223816,294.839233 463.246887,230.682877 463.246429,166.526566 
	C463.246399,164.748413 463.246429,162.970245 463.246429,160.815994 
	C460.980896,160.815994 459.181610,160.816086 457.382355,160.815994 
	C419.055206,160.814072 380.727631,160.909546 342.401184,160.744873 
	C332.223999,160.701157 328.151306,157.734955 328.144623,146.472748 
	C328.121613,107.812325 328.132935,69.151886 328.131165,30.491453 
	C328.131104,28.730778 328.131165,26.970102 328.131165,25.743082 
	C310.119934,25.743082 292.695038,25.743080 275.270142,25.743080 
	C266.700195,25.743080 258.130249,25.741447 249.560287,25.743376 
	C217.898773,25.750494 186.237137,25.710255 154.575836,25.795317 
	C144.681152,25.821899 138.953049,30.465820 136.804214,40.013077 
	C136.162140,42.865814 135.874084,45.857201 135.869965,48.785690 
	C135.811111,90.612198 135.828827,132.438812 135.828125,174.265396 
	C135.828094,175.718338 135.828125,177.171280 135.828125,179.040421 
	C138.002289,179.040421 139.798172,179.039703 141.594055,179.040543 
	C194.418655,179.065216 247.243530,179.005737 300.067719,179.164963 
	C316.446808,179.214325 328.798859,191.597061 328.841614,207.907242 
	C328.969543,256.732208 329.076447,305.559174 328.662659,354.380890 
	C328.615875,359.900970 326.204163,366.047852 323.131134,370.756897 
	C317.249573,379.769714 307.871613,382.924469 297.236908,382.911743 
	C245.245361,382.849487 193.253708,382.885895 141.262085,382.887390 
	C139.503250,382.887421 137.744415,382.887360 135.826996,382.887360 
	C135.826996,397.529327 135.826996,411.514618 135.826981,426.499939 
M69.500008,198.961899 
	C60.836723,198.962189 52.146385,198.531433 43.517086,199.073135 
	C33.009064,199.732758 29.602011,200.653671 29.661678,212.574509 
	C29.893505,258.889282 29.750282,305.205872 29.773916,351.521790 
	C29.778080,359.681702 32.192181,362.046783 40.390877,362.187927 
	C41.723408,362.210876 43.056427,362.211975 44.389221,362.212006 
	C127.358032,362.213623 210.326843,362.214783 293.295654,362.211029 
	C295.627777,362.210938 297.965668,362.251221 300.290802,362.108643 
	C305.036865,361.817566 307.939758,359.079773 308.152313,354.348175 
	C308.371765,349.462677 308.178436,344.560120 308.257843,339.666534 
	C308.494995,325.054626 308.936249,310.444153 309.006927,295.831726 
	C309.131897,270.008728 309.079773,244.184555 309.001709,218.361160 
	C308.989777,214.417847 309.158020,210.227173 307.903137,206.616577 
	C306.985321,203.975876 304.245178,201.171890 301.638977,200.117752 
	C298.433594,198.821228 294.523163,199.003540 290.917145,199.000977 
	C217.444809,198.948898 143.972397,198.961899 69.500008,198.961899 
M348.825806,132.464417 
	C348.825806,134.907669 348.825806,137.350922 348.825806,139.761627 
	C383.166870,139.761627 416.991608,139.761627 451.495270,139.761627 
	C417.197784,104.165199 383.399933,69.087334 348.825806,33.203770 
	C348.825806,66.673302 348.825806,99.074142 348.825806,132.464417 
z"/>
<path fill="#0000" opacity="1.0000" stroke="none" 
	d="
M135.826996,425.999908 
	C135.826996,411.514618 135.826996,397.529327 135.826996,382.887360 
	C137.744415,382.887360 139.503250,382.887421 141.262085,382.887390 
	C193.253708,382.885895 245.245361,382.849487 297.236908,382.911743 
	C307.871613,382.924469 317.249573,379.769714 323.131134,370.756897 
	C326.204163,366.047852 328.615875,359.900970 328.662659,354.380890 
	C329.076447,305.559174 328.969543,256.732208 328.841614,207.907242 
	C328.798859,191.597061 316.446808,179.214325 300.067719,179.164963 
	C247.243530,179.005737 194.418655,179.065216 141.594055,179.040543 
	C139.798172,179.039703 138.002289,179.040421 135.828125,179.040421 
	C135.828125,177.171280 135.828094,175.718338 135.828125,174.265396 
	C135.828827,132.438812 135.811111,90.612198 135.869965,48.785690 
	C135.874084,45.857201 136.162140,42.865814 136.804214,40.013077 
	C138.953049,30.465820 144.681152,25.821899 154.575836,25.795317 
	C186.237137,25.710255 217.898773,25.750494 249.560287,25.743376 
	C258.130249,25.741447 266.700195,25.743080 275.270142,25.743080 
	C292.695038,25.743080 310.119934,25.743082 328.131165,25.743082 
	C328.131165,26.970102 328.131104,28.730778 328.131165,30.491453 
	C328.132935,69.151886 328.121613,107.812325 328.144623,146.472748 
	C328.151306,157.734955 332.223999,160.701157 342.401184,160.744873 
	C380.727631,160.909546 419.055206,160.814072 457.382355,160.815994 
	C459.181610,160.816086 460.980896,160.815994 463.246429,160.815994 
	C463.246429,162.970245 463.246399,164.748413 463.246429,166.526566 
	C463.246887,230.682877 463.223816,294.839233 463.281097,358.995483 
	C463.287445,366.115906 464.000427,373.237366 463.960602,380.355927 
	C463.797729,409.472992 463.508789,438.589600 463.185883,467.705475 
	C463.030365,481.723267 455.912964,487.969482 442.722748,487.996521 
	C347.238617,488.192322 251.753845,488.162567 156.269531,488.025482 
	C143.324234,488.006897 136.155792,480.771851 135.907837,467.492462 
	C135.652771,453.832520 135.835709,440.164459 135.826996,425.999908 
z"/>
<path fill="#0000" opacity="1.0000" stroke="none" 
	d="
M70.000015,198.961899 
	C143.972397,198.961899 217.444809,198.948898 290.917145,199.000977 
	C294.523163,199.003540 298.433594,198.821228 301.638977,200.117752 
	C304.245178,201.171890 306.985321,203.975876 307.903137,206.616577 
	C309.158020,210.227173 308.989777,214.417847 309.001709,218.361160 
	C309.079773,244.184555 309.131897,270.008728 309.006927,295.831726 
	C308.936249,310.444153 308.494995,325.054626 308.257843,339.666534 
	C308.178436,344.560120 308.371765,349.462677 308.152313,354.348175 
	C307.939758,359.079773 305.036865,361.817566 300.290802,362.108643 
	C297.965668,362.251221 295.627777,362.210938 293.295654,362.211029 
	C210.326843,362.214783 127.358032,362.213623 44.389221,362.212006 
	C43.056427,362.211975 41.723408,362.210876 40.390877,362.187927 
	C32.192181,362.046783 29.778080,359.681702 29.773916,351.521790 
	C29.750282,305.205872 29.893505,258.889282 29.661678,212.574509 
	C29.602011,200.653671 33.009064,199.732758 43.517086,199.073135 
	C52.146385,198.531433 60.836723,198.962189 70.000015,198.961899 
M203.424576,314.887756 
	C205.578384,311.255371 208.094925,307.786499 209.819305,303.960602 
	C215.427826,291.516907 214.857269,278.559509 211.514267,265.785034 
	C209.006409,256.201752 204.455643,247.416672 194.173203,244.044052 
	C189.431442,242.488739 184.206238,242.183609 179.163437,241.814682 
	C167.334885,240.949280 155.484161,240.387100 143.490799,239.693436 
	C143.490799,268.264008 143.490799,295.964447 143.490799,323.877136 
	C156.794220,323.877136 169.775070,323.733765 182.750793,323.929718 
	C190.834778,324.051849 197.562469,321.475311 203.424576,314.887756 
M96.378883,241.156799 
	C86.363998,241.156799 76.349121,241.156799 66.395325,241.156799 
	C66.395325,268.715881 66.395325,296.593781 66.395325,324.602112 
	C72.243889,324.602112 77.821274,324.602112 83.855843,324.602112 
	C83.855843,314.347137 83.855843,304.292938 83.855843,294.080048 
	C91.702141,293.653900 99.102814,293.226074 106.506371,292.856140 
	C116.556351,292.354034 123.900909,288.080048 127.994919,278.468475 
	C134.257462,263.765808 129.647690,248.793594 115.815521,243.383499 
	C110.224121,241.196564 103.533173,241.820877 96.378883,241.156799 
M248.773926,274.210602 
	C244.077301,274.573273 244.892151,271.316284 245.073364,268.525970 
	C245.254211,265.741333 246.321701,262.709656 245.554413,260.234589 
	C244.169235,255.766403 246.491806,255.863083 249.473511,255.879990 
	C255.965698,255.916794 262.458221,255.891342 268.950592,255.891342 
	C274.201752,255.891342 279.452881,255.891357 284.555603,255.891357 
	C284.555603,250.575378 284.555603,245.986908 284.555603,241.353119 
	C265.370392,241.353119 246.475021,241.353119 227.196182,241.353119 
	C227.196182,243.225891 227.196167,244.852646 227.196167,246.479385 
	C227.196167,268.287140 227.196167,290.094879 227.196167,311.902618 
	C227.196152,325.020660 227.196045,324.883087 240.267883,324.871063 
	C244.059753,324.867584 245.090866,323.625793 245.007675,319.961212 
	C244.782181,310.027100 244.930344,300.084534 244.930344,289.803802 
	C252.856659,289.803802 260.309631,289.803802 267.762604,289.803802 
	C279.230286,289.803802 279.111145,289.804871 279.009064,278.484406 
	C278.979523,275.211121 277.956390,274.091278 274.696533,274.155853 
	C266.376221,274.320709 258.050507,274.210815 248.773926,274.210602 
z"/>
<path fill="#0000" opacity="1.0000" stroke="none" 
	d="
M348.825806,131.969696 
	C348.825806,99.074142 348.825806,66.673302 348.825806,33.203770 
	C383.399933,69.087334 417.197784,104.165199 451.495270,139.761627 
	C416.991608,139.761627 383.166870,139.761627 348.825806,139.761627 
	C348.825806,137.350922 348.825806,134.907669 348.825806,131.969696 
z"/>
<path fill="#F2FCF7" opacity="1.0000" stroke="none" 
	d="
M203.174255,315.147217 
	C197.562469,321.475311 190.834778,324.051849 182.750793,323.929718 
	C169.775070,323.733765 156.794220,323.877136 143.490799,323.877136 
	C143.490799,295.964447 143.490799,268.264008 143.490799,239.693436 
	C155.484161,240.387100 167.334885,240.949280 179.163437,241.814682 
	C184.206238,242.183609 189.431442,242.488739 194.173203,244.044052 
	C204.455643,247.416672 209.006409,256.201752 211.514267,265.785034 
	C214.857269,278.559509 215.427826,291.516907 209.819305,303.960602 
	C208.094925,307.786499 205.578384,311.255371 203.174255,315.147217 
M193.212509,297.487549 
	C193.533340,289.178162 194.229980,280.861816 194.076202,272.561218 
	C193.899414,263.019836 189.274185,258.147400 179.942230,256.859161 
	C175.880402,256.298462 171.743073,256.008911 167.644836,256.052094 
	C161.394394,256.117950 160.663666,257.833893 160.838058,263.918793 
	C161.235382,277.782196 160.914734,291.665222 161.159348,305.535461 
	C161.181198,306.773987 163.132599,308.954529 164.296417,309.030304 
	C169.763000,309.386261 175.281906,309.403259 180.754929,309.080078 
	C187.901642,308.658112 191.724213,305.139191 193.212509,297.487549 
z"/>
<path fill="#F3FCF7" opacity="1.0000" stroke="none" 
	d="
M96.860733,241.161346 
	C103.533173,241.820877 110.224121,241.196564 115.815521,243.383499 
	C129.647690,248.793594 134.257462,263.765808 127.994919,278.468475 
	C123.900909,288.080048 116.556351,292.354034 106.506371,292.856140 
	C99.102814,293.226074 91.702141,293.653900 83.855843,294.080048 
	C83.855843,304.292938 83.855843,314.347137 83.855843,324.602112 
	C77.821274,324.602112 72.243889,324.602112 66.395325,324.602112 
	C66.395325,296.593781 66.395325,268.715881 66.395325,241.156799 
	C76.349121,241.156799 86.363998,241.156799 96.860733,241.161346 
M105.849190,276.839600 
	C110.196144,274.991974 111.988876,271.138611 111.892784,266.993774 
	C111.798126,262.910492 110.151764,258.284027 105.721375,257.324402 
	C98.597031,255.781250 91.207710,254.698959 84.150841,257.197968 
	C84.150841,264.714539 84.150841,271.821686 84.150841,279.095306 
	C91.311813,278.408875 98.181641,277.750336 105.849190,276.839600 
z"/>
<path fill="#F0FCF6" opacity="1.0000" stroke="none" 
	d="
M249.250427,274.210724 
	C258.050507,274.210815 266.376221,274.320709 274.696533,274.155853 
	C277.956390,274.091278 278.979523,275.211121 279.009064,278.484406 
	C279.111145,289.804871 279.230286,289.803802 267.762604,289.803802 
	C260.309631,289.803802 252.856659,289.803802 244.930344,289.803802 
	C244.930344,300.084534 244.782181,310.027100 245.007675,319.961212 
	C245.090866,323.625793 244.059753,324.867584 240.267883,324.871063 
	C227.196045,324.883087 227.196152,325.020660 227.196167,311.902618 
	C227.196167,290.094879 227.196167,268.287140 227.196167,246.479385 
	C227.196167,244.852646 227.196182,243.225891 227.196182,241.353119 
	C246.475021,241.353119 265.370392,241.353119 284.555603,241.353119 
	C284.555603,245.986908 284.555603,250.575378 284.555603,255.891357 
	C279.452881,255.891357 274.201752,255.891342 268.950592,255.891342 
	C262.458221,255.891342 255.965698,255.916794 249.473511,255.879990 
	C246.491806,255.863083 244.169235,255.766403 245.554413,260.234589 
	C246.321701,262.709656 245.254211,265.741333 245.073364,268.525970 
	C244.892151,271.316284 244.077301,274.573273 249.250427,274.210724 
z"/>
<path fill="#0000" opacity="1.0000" stroke="none" 
	d="
M193.196915,297.915100 
	C191.724213,305.139191 187.901642,308.658112 180.754929,309.080078 
	C175.281906,309.403259 169.763000,309.386261 164.296417,309.030304 
	C163.132599,308.954529 161.181198,306.773987 161.159348,305.535461 
	C160.914734,291.665222 161.235382,277.782196 160.838058,263.918793 
	C160.663666,257.833893 161.394394,256.117950 167.644836,256.052094 
	C171.743073,256.008911 175.880402,256.298462 179.942230,256.859161 
	C189.274185,258.147400 193.899414,263.019836 194.076202,272.561218 
	C194.229980,280.861816 193.533340,289.178162 193.196915,297.915100 
z"/>
<path fill="#0000" opacity="1.0000" stroke="none" 
	d="
M105.450333,276.965698 
	C98.181641,277.750336 91.311813,278.408875 84.150841,279.095306 
	C84.150841,271.821686 84.150841,264.714539 84.150841,257.197968 
	C91.207710,254.698959 98.597031,255.781250 105.721375,257.324402 
	C110.151764,258.284027 111.798126,262.910492 111.892784,266.993774 
	C111.988876,271.138611 110.196144,274.991974 105.450333,276.965698 
z"/>
</svg>