<svg version="1.1" id="Layer_1" xmlns="http://www.w3.org/2000/svg" xmlns:xlink="http://www.w3.org/1999/xlink" x="0px" y="0px"
	 width="100%" viewBox="0 0 2219 1407" enable-background="new 0 0 2219 1407" xml:space="preserve">
<path fill="#FFFFFF" opacity="1.000000" stroke="none" 
	d="
M1352.000000,1408.000000 
	C901.333313,1408.000000 451.166656,1408.000000 1.000000,1408.000000 
	C1.000000,939.000000 1.000000,470.000000 1.000000,1.000000 
	C740.666687,1.000000 1480.333374,1.000000 2220.000000,1.000000 
	C2220.000000,470.000000 2220.000000,939.000000 2220.000000,1408.000000 
	C1930.833374,1408.000000 1641.666626,1408.000000 1352.000000,1408.000000 
M1349.119263,695.295776 
	C1337.769409,693.662659 1326.466797,691.440796 1315.059326,690.525818 
	C1294.828979,688.903198 1276.064453,692.850952 1261.955688,708.928101 
	C1216.252686,761.007324 1158.935547,784.232239 1090.073975,776.970154 
	C1039.462769,771.632690 997.699524,748.448181 964.710815,709.762207 
	C957.166260,700.914734 948.075806,695.161438 937.114807,691.845581 
	C924.794495,688.118591 912.374634,689.727173 899.958801,690.847412 
	C859.113220,694.532837 821.440735,707.697327 786.364136,728.748352 
	C761.771179,743.507629 740.075378,761.889648 719.603271,781.788696 
	C715.952515,785.337219 712.858582,786.208862 707.790955,784.619080 
	C678.273865,775.358826 648.675232,766.341309 618.957703,757.748352 
	C611.070435,755.467773 602.686829,754.020447 594.497681,753.856140 
	C578.737000,753.539978 566.318420,761.430847 555.229065,772.006775 
	C545.116150,781.651550 535.218933,791.663391 524.205444,800.195190 
	C496.848236,821.388062 465.661194,833.100586 430.895264,833.659180 
	C400.679535,834.144714 372.780792,825.576599 347.015808,809.837830 
	C329.646454,799.227539 314.979065,785.520447 301.069855,770.825134 
	C290.493958,759.651611 277.287018,754.044739 261.828400,753.933228 
	C238.120178,753.762268 215.104141,758.028931 192.700745,765.426697 
	C147.021164,780.510559 108.606499,806.723389 76.955658,842.768494 
	C46.839348,877.066101 26.517851,916.493347 16.430344,961.115723 
	C11.664632,982.196899 10.296585,1003.614014 10.242293,1025.107056 
	C10.068009,1094.102905 10.086265,1163.099365 10.207926,1232.095337 
	C10.220783,1239.386963 11.055909,1246.728638 12.121617,1253.956665 
	C14.601629,1270.776978 23.586172,1279.665283 40.504807,1281.991333 
	C48.233208,1283.053955 56.069527,1283.876709 63.857471,1283.881470 
	C253.681702,1283.997437 443.506012,1283.988281 633.330322,1284.001587 
	C635.437805,1284.001831 637.545288,1284.001709 640.059570,1284.001709 
	C640.059570,1286.582642 640.040466,1288.548584 640.062439,1290.514038 
	C640.339294,1315.333496 640.259888,1340.164062 641.021790,1364.968750 
	C641.598328,1383.739014 649.989624,1394.386963 665.368530,1397.559448 
	C669.419006,1398.395020 673.598694,1398.919922 677.729736,1398.994507 
	C695.887695,1399.322144 714.049500,1399.580444 732.210083,1399.596924 
	C830.705383,1399.686768 929.200806,1399.771606 1027.696045,1399.718384 
	C1194.850464,1399.627930 1362.005005,1399.448120 1529.159302,1399.227661 
	C1535.793213,1399.218872 1542.467896,1398.735596 1549.050415,1397.898071 
	C1562.605835,1396.172729 1571.387085,1388.392334 1574.095215,1375.086426 
	C1575.678101,1367.309204 1576.599365,1359.282715 1576.742676,1351.348999 
	C1577.112915,1330.856689 1576.885620,1310.353638 1576.896851,1289.854858 
	C1576.897705,1288.072388 1576.896973,1286.289917 1576.896973,1284.001709 
	C1579.551147,1284.001709 1581.673340,1284.001831 1583.795410,1284.001709 
	C1769.786621,1283.993652 1955.777832,1283.987671 2141.769043,1283.969238 
	C2148.101318,1283.968628 2154.459229,1284.175171 2160.758301,1283.682861 
	C2167.034668,1283.192505 2173.440186,1282.608154 2179.458008,1280.898804 
	C2196.362549,1276.096924 2204.223877,1265.796143 2204.876953,1248.253174 
	C2205.329346,1236.101685 2205.639404,1223.935303 2205.602783,1211.776855 
	C2205.397217,1143.790039 2205.233398,1075.802124 2204.624023,1007.818481 
	C2204.515869,995.727722 2203.069824,983.539551 2201.066406,971.593445 
	C2190.615967,909.276733 2160.135742,858.151123 2112.734619,816.990784 
	C2073.931641,783.296692 2028.903564,762.840454 1977.965332,755.247192 
	C1954.938110,751.814575 1935.246826,756.788452 1918.965210,774.299133 
	C1910.942505,782.927368 1902.180054,791.033203 1892.914673,798.308899 
	C1867.307129,818.417908 1838.335205,830.788574 1805.596558,832.936096 
	C1760.116211,835.919373 1720.964355,820.217163 1686.663452,791.223877 
	C1677.899536,783.816101 1670.181519,775.138855 1661.213379,768.013428 
	C1650.715698,759.672485 1638.490112,754.365845 1624.765381,755.241394 
	C1616.185547,755.788757 1607.600586,757.548950 1599.212036,759.570374 
	C1567.201904,767.284668 1535.254883,775.264282 1503.333862,783.340332 
	C1500.122803,784.152710 1498.229126,783.464722 1495.837280,781.391846 
	C1482.500854,769.833069 1469.431152,757.895813 1455.424805,747.194641 
	C1423.756348,722.999329 1389.047852,704.669312 1349.119263,695.295776 
M1338.361938,540.845154 
	C1351.692017,517.903015 1360.847046,493.394531 1366.013428,467.374878 
	C1374.154541,426.371826 1377.011108,384.876556 1376.702271,343.187561 
	C1376.509888,317.216736 1375.046143,291.252869 1374.014038,265.291412 
	C1373.069946,241.545349 1369.087402,218.301498 1361.314209,195.818924 
	C1338.171631,128.881699 1294.048584,80.146759 1231.375610,48.148258 
	C1177.500000,20.641325 1120.465332,11.420126 1060.733521,22.270580 
	C1011.981934,31.126465 968.721069,51.999893 931.405457,84.632217 
	C882.886963,127.061401 853.608032,180.161392 843.958618,244.051880 
	C839.684082,272.354340 839.404480,300.784393 839.947144,329.284607 
	C840.238831,344.602966 840.265015,359.928558 840.739319,375.240723 
	C841.413879,397.016846 840.645142,419.020813 843.566040,440.509735 
	C852.235229,504.287323 880.357361,558.592590 929.316895,600.695007 
	C994.510193,656.757507 1070.651855,679.470215 1155.439819,665.386230 
	C1234.465454,652.259521 1295.756470,610.206909 1338.361938,540.845154 
M635.550354,290.974915 
	C625.902344,272.956146 614.034180,256.518738 599.963745,241.717636 
	C568.308228,208.418243 530.018860,186.173325 485.780334,174.224243 
	C439.987427,161.855270 394.063385,161.083847 349.199310,177.420883 
	C265.789276,207.794205 213.347000,266.736084 192.153259,352.943237 
	C183.945847,386.327576 186.010040,420.800751 183.364853,454.775085 
	C183.319153,455.362183 183.681885,455.995056 183.906372,456.586700 
	C184.632263,458.499786 186.009048,460.397949 186.026428,462.311890 
	C186.195877,480.972076 185.767120,499.643921 186.247757,518.293396 
	C186.776978,538.827209 189.950562,559.067749 196.172943,578.679810 
	C216.369461,642.336548 256.256927,689.745911 315.526550,720.238953 
	C367.065948,746.755127 421.615479,754.350891 478.383270,741.584534 
	C518.466309,732.570374 553.820374,713.888123 584.447449,686.443481 
	C617.624390,656.713928 640.942261,620.693481 652.998779,577.679382 
	C661.829712,546.173035 664.024109,513.705688 664.635315,481.276367 
	C665.218567,450.330902 664.237061,419.324951 662.987183,388.384186 
	C661.603027,354.117981 651.991638,321.905426 635.550354,290.974915 
M2028.001343,377.512421 
	C2025.679443,355.876465 2020.683105,334.873840 2012.337769,314.776611 
	C1985.367554,249.827087 1938.553955,205.227600 1872.840820,180.783752 
	C1831.291138,165.328201 1788.423950,160.973114 1744.672485,169.659042 
	C1693.546143,179.809097 1650.330078,204.348892 1614.912109,242.474472 
	C1587.494141,271.988556 1568.820312,306.334991 1559.929932,345.731049 
	C1552.673340,377.887207 1550.735718,410.686676 1550.472900,443.470337 
	C1550.241943,472.255707 1551.485596,501.082520 1552.986328,529.843628 
	C1554.459595,558.073303 1562.103760,584.967651 1574.307617,610.412720 
	C1600.568481,665.166321 1642.021362,704.331909 1697.865845,727.797729 
	C1746.318481,748.157532 1796.472900,753.635864 1847.890015,740.907227 
	C1899.421631,728.150146 1941.819336,700.583679 1975.330811,659.608154 
	C2001.561401,627.535156 2019.245483,591.034302 2024.906860,549.908630 
	C2028.938477,520.623352 2029.852661,490.908722 2032.136108,461.383972 
	C2032.198486,460.577209 2032.300049,459.254608 2031.886597,459.008972 
	C2027.027954,456.123627 2029.560669,451.557617 2029.459961,447.810730 
	C2028.838867,424.684326 2028.492432,401.550537 2028.001343,377.512421 
z"/>
<path fill="#858686" opacity="1.000000" stroke="none" 
	d="
M1349.517578,695.425293 
	C1389.047852,704.669312 1423.756348,722.999329 1455.424805,747.194641 
	C1469.431152,757.895813 1482.500854,769.833069 1495.837280,781.391846 
	C1498.229126,783.464722 1500.122803,784.152710 1503.333862,783.340332 
	C1535.254883,775.264282 1567.201904,767.284668 1599.212036,759.570374 
	C1607.600586,757.548950 1616.185547,755.788757 1624.765381,755.241394 
	C1638.490112,754.365845 1650.715698,759.672485 1661.213379,768.013428 
	C1670.181519,775.138855 1677.899536,783.816101 1686.663452,791.223877 
	C1720.964355,820.217163 1760.116211,835.919373 1805.596558,832.936096 
	C1838.335205,830.788574 1867.307129,818.417908 1892.914673,798.308899 
	C1902.180054,791.033203 1910.942505,782.927368 1918.965210,774.299133 
	C1935.246826,756.788452 1954.938110,751.814575 1977.965332,755.247192 
	C2028.903564,762.840454 2073.931641,783.296692 2112.734619,816.990784 
	C2160.135742,858.151123 2190.615967,909.276733 2201.066406,971.593445 
	C2203.069824,983.539551 2204.515869,995.727722 2204.624023,1007.818481 
	C2205.233398,1075.802124 2205.397217,1143.790039 2205.602783,1211.776855 
	C2205.639404,1223.935303 2205.329346,1236.101685 2204.876953,1248.253174 
	C2204.223877,1265.796143 2196.362549,1276.096924 2179.458008,1280.898804 
	C2173.440186,1282.608154 2167.034668,1283.192505 2160.758301,1283.682861 
	C2154.459229,1284.175171 2148.101318,1283.968628 2141.769043,1283.969238 
	C1955.777832,1283.987671 1769.786621,1283.993652 1583.795410,1284.001709 
	C1581.673340,1284.001831 1579.551147,1284.001709 1576.896973,1284.001709 
	C1576.896973,1286.289917 1576.897705,1288.072388 1576.896851,1289.854858 
	C1576.885620,1310.353638 1577.112915,1330.856689 1576.742676,1351.348999 
	C1576.599365,1359.282715 1575.678101,1367.309204 1574.095215,1375.086426 
	C1571.387085,1388.392334 1562.605835,1396.172729 1549.050415,1397.898071 
	C1542.467896,1398.735596 1535.793213,1399.218872 1529.159302,1399.227661 
	C1362.005005,1399.448120 1194.850464,1399.627930 1027.696045,1399.718384 
	C929.200806,1399.771606 830.705383,1399.686768 732.210083,1399.596924 
	C714.049500,1399.580444 695.887695,1399.322144 677.729736,1398.994507 
	C673.598694,1398.919922 669.419006,1398.395020 665.368530,1397.559448 
	C649.989624,1394.386963 641.598328,1383.739014 641.021790,1364.968750 
	C640.259888,1340.164062 640.339294,1315.333496 640.062439,1290.514038 
	C640.040466,1288.548584 640.059570,1286.582642 640.059570,1284.001709 
	C637.545288,1284.001709 635.437805,1284.001831 633.330322,1284.001587 
	C443.506012,1283.988281 253.681702,1283.997437 63.857471,1283.881470 
	C56.069527,1283.876709 48.233208,1283.053955 40.504807,1281.991333 
	C23.586172,1279.665283 14.601629,1270.776978 12.121617,1253.956665 
	C11.055909,1246.728638 10.220783,1239.386963 10.207926,1232.095337 
	C10.086265,1163.099365 10.068009,1094.102905 10.242293,1025.107056 
	C10.296585,1003.614014 11.664632,982.196899 16.430344,961.115723 
	C26.517851,916.493347 46.839348,877.066101 76.955658,842.768494 
	C108.606499,806.723389 147.021164,780.510559 192.700745,765.426697 
	C215.104141,758.028931 238.120178,753.762268 261.828400,753.933228 
	C277.287018,754.044739 290.493958,759.651611 301.069855,770.825134 
	C314.979065,785.520447 329.646454,799.227539 347.015808,809.837830 
	C372.780792,825.576599 400.679535,834.144714 430.895264,833.659180 
	C465.661194,833.100586 496.848236,821.388062 524.205444,800.195190 
	C535.218933,791.663391 545.116150,781.651550 555.229065,772.006775 
	C566.318420,761.430847 578.737000,753.539978 594.497681,753.856140 
	C602.686829,754.020447 611.070435,755.467773 618.957703,757.748352 
	C648.675232,766.341309 678.273865,775.358826 707.790955,784.619080 
	C712.858582,786.208862 715.952515,785.337219 719.603271,781.788696 
	C740.075378,761.889648 761.771179,743.507629 786.364136,728.748352 
	C821.440735,707.697327 859.113220,694.532837 899.958801,690.847412 
	C912.374634,689.727173 924.794495,688.118591 937.114807,691.845581 
	C948.075806,695.161438 957.166260,700.914734 964.710815,709.762207 
	C997.699524,748.448181 1039.462769,771.632690 1090.073975,776.970154 
	C1158.935547,784.232239 1216.252686,761.007324 1261.955688,708.928101 
	C1276.064453,692.850952 1294.828979,688.903198 1315.059326,690.525818 
	C1326.466797,691.440796 1337.769409,693.662659 1349.517578,695.425293 
M712.304077,971.921692 
	C711.906006,994.245667 711.157288,1016.569824 711.171021,1038.893555 
	C711.227844,1131.382812 711.514832,1223.871948 711.721558,1316.361206 
	C711.723755,1317.359985 711.703918,1318.368896 711.830383,1319.355713 
	C712.630615,1325.599243 714.568909,1327.311035 720.783142,1327.311157 
	C979.766907,1327.312012 1238.750732,1327.311890 1497.734497,1327.311890 
	C1499.681030,1327.311890 1501.627441,1327.311890 1504.151489,1327.311890 
	C1504.151489,1324.767700 1504.137695,1322.815796 1504.153687,1320.864014 
	C1504.345825,1297.370605 1504.796265,1273.875977 1504.693115,1250.383911 
	C1504.273560,1154.740723 1503.811401,1059.097290 1503.079468,963.456116 
	C1502.866089,935.564453 1495.993286,908.982605 1483.398071,884.175354 
	C1451.783325,821.907104 1401.278076,783.170288 1333.845337,766.332275 
	C1319.377930,762.719849 1306.343628,767.009766 1294.819580,776.568909 
	C1283.805420,785.705078 1272.928223,795.163208 1261.062744,803.090332 
	C1192.821411,848.681152 1119.112549,862.289673 1039.714600,838.940613 
	C998.083618,826.697937 961.945374,804.542786 929.952942,775.459656 
	C919.424927,765.889038 907.558716,760.313782 893.102295,763.286499 
	C821.841675,777.939636 769.755676,818.428467 735.298828,881.882996 
	C720.291321,909.520447 713.033203,939.489136 712.304077,971.921692 
M1689.500000,1212.067261 
	C1837.429565,1212.067261 1985.359131,1212.067261 2133.606201,1212.067261 
	C2133.708252,1209.929688 2133.844238,1208.308594 2133.853760,1206.686768 
	C2133.925781,1194.355591 2134.017822,1182.024292 2134.020020,1169.693115 
	C2134.028564,1119.883789 2134.228027,1070.072876 2133.850098,1020.266357 
	C2133.748291,1006.825195 2133.339844,993.082214 2130.551025,980.015686 
	C2114.053955,902.709290 2067.262451,853.300964 1991.268921,831.692261 
	C1977.981445,827.913940 1965.904907,831.314697 1955.392456,840.150574 
	C1935.540649,856.836426 1914.203979,871.213562 1890.665039,882.228333 
	C1837.524292,907.094971 1783.018433,911.457642 1727.004883,893.169800 
	C1692.794922,882.000671 1662.782227,863.503540 1635.192749,840.704468 
	C1630.221558,836.596375 1624.827026,832.919922 1619.297485,829.593506 
	C1614.750122,826.857910 1609.652222,826.353088 1604.376465,828.083984 
	C1592.370117,832.023193 1580.275879,835.694946 1568.272583,839.643555 
	C1560.422729,842.225891 1552.669434,845.102600 1544.664673,847.920776 
	C1545.141357,849.376160 1545.353760,850.328857 1545.751709,851.196533 
	C1567.289795,898.158508 1575.605469,947.955505 1576.931396,999.129517 
	C1577.530762,1022.263611 1577.043091,1045.425903 1577.038330,1068.575439 
	C1577.030640,1104.717163 1576.783081,1140.861084 1577.135376,1176.999268 
	C1577.248169,1188.566040 1578.938721,1200.117188 1579.940186,1212.067261 
	C1616.582764,1212.067261 1652.541382,1212.067261 1689.500000,1212.067261 
M126.904411,889.406250 
	C105.931129,913.220581 93.991661,941.182007 89.062042,972.298218 
	C82.794647,1011.858582 80.822182,1051.761597 80.102211,1091.734131 
	C79.454018,1127.721558 79.199341,1163.715942 78.739784,1199.706909 
	C78.693977,1203.294067 78.430527,1206.878418 78.258102,1210.684570 
	C264.780884,1210.684570 450.712738,1210.684570 636.887695,1210.684570 
	C637.231018,1209.091064 637.685730,1207.666382 637.830017,1206.210938 
	C641.105469,1173.161133 641.488953,1140.017822 640.699158,1106.857422 
	C639.656067,1063.062866 637.611938,1019.286194 640.820129,975.482849 
	C643.348450,940.963013 649.039795,907.121277 660.815125,874.471863 
	C663.957214,865.759766 667.502625,857.193115 670.532288,849.408875 
	C659.783020,844.331909 649.388550,839.140381 638.750732,834.507690 
	C632.702454,831.873718 626.398926,829.397888 619.958984,828.181824 
	C607.091614,825.752014 597.243835,832.315369 588.096558,840.402222 
	C566.985474,859.065918 543.738159,874.475342 517.764038,885.545837 
	C463.242310,908.783813 408.069061,910.359619 352.289581,890.240845 
	C320.049866,878.612488 291.803558,860.406250 265.905487,838.225586 
	C255.892151,829.649475 244.248169,826.910461 231.375580,830.040649 
	C226.368042,831.258240 221.373611,832.577759 216.460159,834.126526 
	C182.196335,844.927124 151.535873,861.623291 126.904411,889.406250 
z"/>
<path fill="#858686" opacity="1.000000" stroke="none" 
	d="
M1338.179321,541.162415 
	C1295.756470,610.206909 1234.465454,652.259521 1155.439819,665.386230 
	C1070.651855,679.470215 994.510193,656.757507 929.316895,600.695007 
	C880.357361,558.592590 852.235229,504.287323 843.566040,440.509735 
	C840.645142,419.020813 841.413879,397.016846 840.739319,375.240723 
	C840.265015,359.928558 840.238831,344.602966 839.947144,329.284607 
	C839.404480,300.784393 839.684082,272.354340 843.958618,244.051880 
	C853.608032,180.161392 882.886963,127.061401 931.405457,84.632217 
	C968.721069,51.999893 1011.981934,31.126465 1060.733521,22.270580 
	C1120.465332,11.420126 1177.500000,20.641325 1231.375610,48.148258 
	C1294.048584,80.146759 1338.171631,128.881699 1361.314209,195.818924 
	C1369.087402,218.301498 1373.069946,241.545349 1374.014038,265.291412 
	C1375.046143,291.252869 1376.509888,317.216736 1376.702271,343.187561 
	C1377.011108,384.876556 1374.154541,426.371826 1366.013428,467.374878 
	C1360.847046,493.394531 1351.692017,517.903015 1338.179321,541.162415 
M1306.771484,359.334686 
	C1307.153564,324.331818 1306.178467,289.373383 1302.080200,254.588486 
	C1297.450317,215.290146 1281.886108,180.465118 1254.264648,152.351395 
	C1198.191406,95.278831 1130.276123,74.313316 1052.956055,96.523972 
	C984.636353,116.149185 939.154175,161.848480 919.622192,231.070587 
	C909.564148,266.716614 910.949097,303.903198 907.192871,340.819305 
	C911.299072,340.471710 912.137268,342.519653 911.873291,345.968506 
	C911.479614,351.110168 911.519714,356.286346 911.416382,361.448669 
	C910.893555,387.591339 910.050720,413.745819 914.908020,439.652283 
	C931.203247,526.563599 1005.229675,593.017273 1097.282349,598.804443 
	C1134.365967,601.135803 1169.621216,593.534424 1202.148193,575.477173 
	C1256.083862,545.535034 1290.883179,500.888489 1300.746704,439.393890 
	C1304.920166,413.374420 1304.880371,386.679169 1306.771484,359.334686 
z"/>
<path fill="#858686" opacity="1.000000" stroke="none" 
	d="
M635.726807,291.302063 
	C651.991638,321.905426 661.603027,354.117981 662.987183,388.384186 
	C664.237061,419.324951 665.218567,450.330902 664.635315,481.276367 
	C664.024109,513.705688 661.829712,546.173035 652.998779,577.679382 
	C640.942261,620.693481 617.624390,656.713928 584.447449,686.443481 
	C553.820374,713.888123 518.466309,732.570374 478.383270,741.584534 
	C421.615479,754.350891 367.065948,746.755127 315.526550,720.238953 
	C256.256927,689.745911 216.369461,642.336548 196.172943,578.679810 
	C189.950562,559.067749 186.776978,538.827209 186.247757,518.293396 
	C185.767120,499.643921 186.195877,480.972076 186.026428,462.311890 
	C186.009048,460.397949 184.632263,458.499786 183.906372,456.586700 
	C183.681885,455.995056 183.319153,455.362183 183.364853,454.775085 
	C186.010040,420.800751 183.945847,386.327576 192.153259,352.943237 
	C213.347000,266.736084 265.789276,207.794205 349.199310,177.420883 
	C394.063385,161.083847 439.987427,161.855270 485.780334,174.224243 
	C530.018860,186.173325 568.308228,208.418243 599.963745,241.717636 
	C614.034180,256.518738 625.902344,272.956146 635.726807,291.302063 
M546.643555,625.140015 
	C567.346863,603.587341 581.266296,578.327026 586.843384,548.927429 
	C592.378357,519.750000 594.648010,490.134094 594.536438,460.499939 
	C594.443237,435.728455 592.951355,410.919037 591.030945,386.207855 
	C588.215027,349.972839 574.282471,317.988983 549.576843,291.465912 
	C508.344788,247.200729 457.351868,228.697357 397.433136,239.047989 
	C336.708862,249.537811 294.019012,283.910828 269.706451,340.664825 
	C259.783234,363.829102 256.351746,388.342102 256.292938,413.328247 
	C256.218079,445.145813 256.528259,476.965210 256.849609,508.782043 
	C256.923462,516.093689 257.236328,523.466492 258.261841,530.694458 
	C264.255524,572.939941 282.840668,608.621521 315.650604,636.105103 
	C352.962494,667.359619 396.384369,680.719116 444.723267,675.595459 
	C484.346405,671.395569 518.178528,654.155457 546.643555,625.140015 
z"/>
<path fill="#858686" opacity="1.000000" stroke="none" 
	d="
M2028.028076,377.965820 
	C2028.492432,401.550537 2028.838867,424.684326 2029.459961,447.810730 
	C2029.560669,451.557617 2027.027954,456.123627 2031.886597,459.008972 
	C2032.300049,459.254608 2032.198486,460.577209 2032.136108,461.383972 
	C2029.852661,490.908722 2028.938477,520.623352 2024.906860,549.908630 
	C2019.245483,591.034302 2001.561401,627.535156 1975.330811,659.608154 
	C1941.819336,700.583679 1899.421631,728.150146 1847.890015,740.907227 
	C1796.472900,753.635864 1746.318481,748.157532 1697.865845,727.797729 
	C1642.021362,704.331909 1600.568481,665.166321 1574.307617,610.412720 
	C1562.103760,584.967651 1554.459595,558.073303 1552.986328,529.843628 
	C1551.485596,501.082520 1550.241943,472.255707 1550.472900,443.470337 
	C1550.735718,410.686676 1552.673340,377.887207 1559.929932,345.731049 
	C1568.820312,306.334991 1587.494141,271.988556 1614.912109,242.474472 
	C1650.330078,204.348892 1693.546143,179.809097 1744.672485,169.659042 
	C1788.423950,160.973114 1831.291138,165.328201 1872.840820,180.783752 
	C1938.553955,205.227600 1985.367554,249.827087 2012.337769,314.776611 
	C2020.683105,334.873840 2025.679443,355.876465 2028.028076,377.965820 
M1747.834351,670.779480 
	C1769.666504,676.235779 1791.736206,678.797058 1814.115845,675.114136 
	C1876.941895,664.775391 1921.045776,630.273010 1946.221313,571.808838 
	C1953.869995,554.046997 1957.126343,535.193359 1958.206055,515.972534 
	C1959.251831,497.358978 1960.254150,478.737976 1960.834473,460.106506 
	C1960.991455,455.072235 1959.059082,449.999634 1958.938843,444.924469 
	C1958.670776,433.602203 1959.524536,422.232208 1958.847290,410.946106 
	C1957.952637,396.038177 1957.539551,380.854736 1954.304810,366.373779 
	C1932.558960,269.022705 1832.756958,219.445648 1750.134277,241.148697 
	C1689.603394,257.048737 1648.265015,294.755066 1630.737305,355.737732 
	C1622.980957,382.723450 1621.832886,410.948792 1621.408447,438.883789 
	C1620.991455,466.333069 1621.710938,493.859650 1623.444336,521.256592 
	C1624.327148,535.210205 1626.959839,549.495117 1631.507568,562.698242 
	C1650.849365,618.852173 1690.543335,653.863403 1747.834351,670.779480 
z"/>
<path fill="#FFFFFF" opacity="1.000000" stroke="none" 
	d="
M712.360901,971.457764 
	C713.033203,939.489136 720.291321,909.520447 735.298828,881.882996 
	C769.755676,818.428467 821.841675,777.939636 893.102295,763.286499 
	C907.558716,760.313782 919.424927,765.889038 929.952942,775.459656 
	C961.945374,804.542786 998.083618,826.697937 1039.714600,838.940613 
	C1119.112549,862.289673 1192.821411,848.681152 1261.062744,803.090332 
	C1272.928223,795.163208 1283.805420,785.705078 1294.819580,776.568909 
	C1306.343628,767.009766 1319.377930,762.719849 1333.845337,766.332275 
	C1401.278076,783.170288 1451.783325,821.907104 1483.398071,884.175354 
	C1495.993286,908.982605 1502.866089,935.564453 1503.079468,963.456116 
	C1503.811401,1059.097290 1504.273560,1154.740723 1504.693115,1250.383911 
	C1504.796265,1273.875977 1504.345825,1297.370605 1504.153687,1320.864014 
	C1504.137695,1322.815796 1504.151489,1324.767700 1504.151489,1327.311890 
	C1501.627441,1327.311890 1499.681030,1327.311890 1497.734497,1327.311890 
	C1238.750732,1327.311890 979.766907,1327.312012 720.783142,1327.311157 
	C714.568909,1327.311035 712.630615,1325.599243 711.830383,1319.355713 
	C711.703918,1318.368896 711.723755,1317.359985 711.721558,1316.361206 
	C711.514832,1223.871948 711.227844,1131.382812 711.171021,1038.893555 
	C711.157288,1016.569824 711.906006,994.245667 712.360901,971.457764 
z"/>
<path fill="#FFFFFF" opacity="1.000000" stroke="none" 
	d="
M1689.000000,1212.067261 
	C1652.541382,1212.067261 1616.582764,1212.067261 1579.940186,1212.067261 
	C1578.938721,1200.117188 1577.248169,1188.566040 1577.135376,1176.999268 
	C1576.783081,1140.861084 1577.030640,1104.717163 1577.038330,1068.575439 
	C1577.043091,1045.425903 1577.530762,1022.263611 1576.931396,999.129517 
	C1575.605469,947.955505 1567.289795,898.158508 1545.751709,851.196533 
	C1545.353760,850.328857 1545.141357,849.376160 1544.664673,847.920776 
	C1552.669434,845.102600 1560.422729,842.225891 1568.272583,839.643555 
	C1580.275879,835.694946 1592.370117,832.023193 1604.376465,828.083984 
	C1609.652222,826.353088 1614.750122,826.857910 1619.297485,829.593506 
	C1624.827026,832.919922 1630.221558,836.596375 1635.192749,840.704468 
	C1662.782227,863.503540 1692.794922,882.000671 1727.004883,893.169800 
	C1783.018433,911.457642 1837.524292,907.094971 1890.665039,882.228333 
	C1914.203979,871.213562 1935.540649,856.836426 1955.392456,840.150574 
	C1965.904907,831.314697 1977.981445,827.913940 1991.268921,831.692261 
	C2067.262451,853.300964 2114.053955,902.709290 2130.551025,980.015686 
	C2133.339844,993.082214 2133.748291,1006.825195 2133.850098,1020.266357 
	C2134.228027,1070.072876 2134.028564,1119.883789 2134.020020,1169.693115 
	C2134.017822,1182.024292 2133.925781,1194.355591 2133.853760,1206.686768 
	C2133.844238,1208.308594 2133.708252,1209.929688 2133.606201,1212.067261 
	C1985.359131,1212.067261 1837.429565,1212.067261 1689.000000,1212.067261 
z"/>
<path fill="#FFFFFF" opacity="1.000000" stroke="none" 
	d="
M127.138367,889.140198 
	C151.535873,861.623291 182.196335,844.927124 216.460159,834.126526 
	C221.373611,832.577759 226.368042,831.258240 231.375580,830.040649 
	C244.248169,826.910461 255.892151,829.649475 265.905487,838.225586 
	C291.803558,860.406250 320.049866,878.612488 352.289581,890.240845 
	C408.069061,910.359619 463.242310,908.783813 517.764038,885.545837 
	C543.738159,874.475342 566.985474,859.065918 588.096558,840.402222 
	C597.243835,832.315369 607.091614,825.752014 619.958984,828.181824 
	C626.398926,829.397888 632.702454,831.873718 638.750732,834.507690 
	C649.388550,839.140381 659.783020,844.331909 670.532288,849.408875 
	C667.502625,857.193115 663.957214,865.759766 660.815125,874.471863 
	C649.039795,907.121277 643.348450,940.963013 640.820129,975.482849 
	C637.611938,1019.286194 639.656067,1063.062866 640.699158,1106.857422 
	C641.488953,1140.017822 641.105469,1173.161133 637.830017,1206.210938 
	C637.685730,1207.666382 637.231018,1209.091064 636.887695,1210.684570 
	C450.712738,1210.684570 264.780884,1210.684570 78.258102,1210.684570 
	C78.430527,1206.878418 78.693977,1203.294067 78.739784,1199.706909 
	C79.199341,1163.715942 79.454018,1127.721558 80.102211,1091.734131 
	C80.822182,1051.761597 82.794647,1011.858582 89.062042,972.298218 
	C93.991661,941.182007 105.931129,913.220581 127.138367,889.140198 
z"/>
<path fill="#FFFFFF" opacity="1.000000" stroke="none" 
	d="
M1306.763550,359.812866 
	C1304.880371,386.679169 1304.920166,413.374420 1300.746704,439.393890 
	C1290.883179,500.888489 1256.083862,545.535034 1202.148193,575.477173 
	C1169.621216,593.534424 1134.365967,601.135803 1097.282349,598.804443 
	C1005.229675,593.017273 931.203247,526.563599 914.908020,439.652283 
	C910.050720,413.745819 910.893555,387.591339 911.416382,361.448669 
	C911.519714,356.286346 911.479614,351.110168 911.873291,345.968506 
	C912.137268,342.519653 911.299072,340.471710 907.192871,340.819305 
	C910.949097,303.903198 909.564148,266.716614 919.622192,231.070587 
	C939.154175,161.848480 984.636353,116.149185 1052.956055,96.523972 
	C1130.276123,74.313316 1198.191406,95.278831 1254.264648,152.351395 
	C1281.886108,180.465118 1297.450317,215.290146 1302.080200,254.588486 
	C1306.178467,289.373383 1307.153564,324.331818 1306.763550,359.812866 
z"/>
<path fill="#FFFFFF" opacity="1.000000" stroke="none" 
	d="
M546.393677,625.390869 
	C518.178528,654.155457 484.346405,671.395569 444.723267,675.595459 
	C396.384369,680.719116 352.962494,667.359619 315.650604,636.105103 
	C282.840668,608.621521 264.255524,572.939941 258.261841,530.694458 
	C257.236328,523.466492 256.923462,516.093689 256.849609,508.782043 
	C256.528259,476.965210 256.218079,445.145813 256.292938,413.328247 
	C256.351746,388.342102 259.783234,363.829102 269.706451,340.664825 
	C294.019012,283.910828 336.708862,249.537811 397.433136,239.047989 
	C457.351868,228.697357 508.344788,247.200729 549.576843,291.465912 
	C574.282471,317.988983 588.215027,349.972839 591.030945,386.207855 
	C592.951355,410.919037 594.443237,435.728455 594.536438,460.499939 
	C594.648010,490.134094 592.378357,519.750000 586.843384,548.927429 
	C581.266296,578.327026 567.346863,603.587341 546.393677,625.390869 
z"/>
<path fill="#FFFFFF" opacity="1.000000" stroke="none" 
	d="
M1747.446777,670.648621 
	C1690.543335,653.863403 1650.849365,618.852173 1631.507568,562.698242 
	C1626.959839,549.495117 1624.327148,535.210205 1623.444336,521.256592 
	C1621.710938,493.859650 1620.991455,466.333069 1621.408447,438.883789 
	C1621.832886,410.948792 1622.980957,382.723450 1630.737305,355.737732 
	C1648.265015,294.755066 1689.603394,257.048737 1750.134277,241.148697 
	C1832.756958,219.445648 1932.558960,269.022705 1954.304810,366.373779 
	C1957.539551,380.854736 1957.952637,396.038177 1958.847290,410.946106 
	C1959.524536,422.232208 1958.670776,433.602203 1958.938843,444.924469 
	C1959.059082,449.999634 1960.991455,455.072235 1960.834473,460.106506 
	C1960.254150,478.737976 1959.251831,497.358978 1958.206055,515.972534 
	C1957.126343,535.193359 1953.869995,554.046997 1946.221313,571.808838 
	C1921.045776,630.273010 1876.941895,664.775391 1814.115845,675.114136 
	C1791.736206,678.797058 1769.666504,676.235779 1747.446777,670.648621 
z"/>
</svg>